<svg width="2492" height="946" viewBox="0 0 2492 946" fill="none" xmlns="http://www.w3.org/2000/svg">
<rect width="2492" height="946" rx="102" fill="#002D56"/>
<path d="M429.844 772.218H176.005C167.776 772.218 166.294 760.484 174.264 758.438L257.636 737.039C260.731 736.245 262.896 733.455 262.896 730.259V508.768C262.896 507.037 263.537 505.368 264.695 504.082L424.643 326.541C428.936 321.776 436.844 324.813 436.844 331.227V765.218C436.844 769.084 433.71 772.218 429.844 772.218Z" fill="white"/>
<path d="M578.466 175.444L455.416 269.15C453.678 270.474 452.657 272.534 452.657 274.719V294.423C452.657 296.292 453.404 298.083 454.732 299.398L513.836 357.91C515.164 359.225 515.911 361.016 515.911 362.884V765.218C515.911 769.084 519.045 772.218 522.911 772.218H582.707C586.573 772.218 589.707 769.084 589.707 765.218V181.013C589.707 175.221 583.074 171.935 578.466 175.444Z" fill="white"/>
<path d="M604.842 765.225V386.375C604.842 379.481 613.756 376.739 617.632 382.44L664.165 450.897C664.954 452.058 665.376 453.429 665.376 454.832V730.192C665.376 733.357 667.499 736.128 670.556 736.951L750.469 758.466C758.368 760.593 756.83 772.225 748.65 772.225H611.842C607.976 772.225 604.842 769.091 604.842 765.225Z" fill="#99ABBB"/>
<path d="M910.23 609.884V352.598H967.65V558.721H1077.34V609.884H910.23ZM1140.84 510.871C1140.84 527.067 1145.38 540.317 1154.46 550.623C1163.78 560.684 1175.56 565.715 1189.79 565.715C1204.27 565.715 1216.05 560.684 1225.13 550.623C1234.45 540.317 1239.11 527.067 1239.11 510.871C1239.11 494.676 1234.45 481.425 1225.13 471.119C1216.05 460.813 1204.27 455.66 1189.79 455.66C1175.56 455.66 1163.78 460.813 1154.46 471.119C1145.38 481.425 1140.84 494.676 1140.84 510.871ZM1294.69 510.871C1294.69 539.581 1284.76 563.752 1264.88 583.382C1245 603.013 1219.97 612.828 1189.79 612.828C1159.86 612.828 1134.95 603.013 1115.07 583.382C1095.2 563.752 1085.26 539.581 1085.26 510.871C1085.26 482.161 1095.2 457.991 1115.07 438.36C1134.95 418.484 1159.86 408.546 1189.79 408.546C1219.97 408.546 1245 418.484 1264.88 438.36C1284.76 457.991 1294.69 482.161 1294.69 510.871ZM1425.15 460.445C1408.7 460.445 1396.44 466.334 1388.34 478.112C1380.24 489.645 1376.19 504.982 1376.19 524.122V609.884H1320.98V411.859H1376.19V437.992C1383.31 429.894 1392.14 423.024 1402.69 417.38C1413.49 411.736 1424.41 408.791 1435.45 408.546L1435.82 460.445H1425.15ZM1585.31 518.601V411.859H1640.89V609.884H1585.31V583.75C1571.57 603.136 1553.78 612.828 1531.94 612.828C1510.34 612.828 1492.18 606.08 1477.46 592.584C1462.74 578.843 1455.38 558.598 1455.38 531.852V411.859H1510.96V519.705C1510.96 550.133 1522.12 565.347 1544.45 565.347C1555.49 565.347 1565.06 561.42 1573.16 553.568C1581.26 545.47 1585.31 533.815 1585.31 518.601ZM1827.37 548.415C1827.37 567.8 1820.13 583.382 1805.66 595.161C1791.42 606.939 1773.27 612.828 1751.18 612.828C1736.46 612.828 1721.12 610.252 1705.17 605.099C1689.22 599.7 1674.87 591.848 1662.11 581.542L1686.4 546.943C1707.01 562.893 1728.97 570.868 1752.28 570.868C1759.4 570.868 1765.04 569.518 1769.22 566.819C1773.39 563.874 1775.47 560.071 1775.47 555.408C1775.47 550.746 1772.53 546.452 1766.64 542.526C1761 538.6 1752.65 534.919 1741.61 531.484C1730.81 528.048 1722.47 525.104 1716.58 522.65C1710.94 520.196 1704.44 516.638 1697.07 511.975C1682.11 502.651 1674.62 488.909 1674.62 470.751C1674.62 452.347 1681.98 437.379 1696.71 425.846C1711.43 414.313 1730.45 408.546 1753.76 408.546C1777.07 408.546 1800.38 416.398 1823.69 432.103L1803.08 468.911C1785.9 457.132 1768.73 451.243 1751.55 451.243C1734.62 451.243 1726.15 455.905 1726.15 465.23C1726.15 470.383 1728.85 474.432 1734.25 477.376C1739.65 480.321 1748.6 483.756 1761.12 487.682C1773.63 491.609 1782.47 494.676 1787.62 496.884C1793.02 498.847 1799.4 502.037 1806.76 506.454C1820.5 514.797 1827.37 528.784 1827.37 548.415ZM2003.88 548.415C2003.88 567.8 1996.64 583.382 1982.16 595.161C1967.93 606.939 1949.77 612.828 1927.68 612.828C1912.96 612.828 1897.63 610.252 1881.68 605.099C1865.73 599.7 1851.37 591.848 1838.61 581.542L1862.9 546.943C1883.52 562.893 1905.48 570.868 1928.79 570.868C1935.91 570.868 1941.55 569.518 1945.72 566.819C1949.89 563.874 1951.98 560.071 1951.98 555.408C1951.98 550.746 1949.03 546.452 1943.14 542.526C1937.5 538.6 1929.16 534.919 1918.11 531.484C1907.32 528.048 1898.97 525.104 1893.09 522.65C1887.44 520.196 1880.94 516.638 1873.58 511.975C1858.61 502.651 1851.13 488.909 1851.13 470.751C1851.13 452.347 1858.49 437.379 1873.21 425.846C1887.93 414.313 1906.95 408.546 1930.26 408.546C1953.57 408.546 1976.88 416.398 2000.2 432.103L1979.58 468.911C1962.41 457.132 1945.23 451.243 1928.05 451.243C1911.12 451.243 1902.66 455.905 1902.66 465.23C1902.66 470.383 1905.35 474.432 1910.75 477.376C1916.15 480.321 1925.11 483.756 1937.62 487.682C1950.14 491.609 1958.97 494.676 1964.12 496.884C1969.52 498.847 1975.9 502.037 1983.26 506.454C1997.01 514.797 2003.88 528.784 2003.88 548.415ZM2075.48 510.871C2075.48 527.067 2080.02 540.317 2089.1 550.623C2098.42 560.684 2110.2 565.715 2124.43 565.715C2138.91 565.715 2150.69 560.684 2159.77 550.623C2169.09 540.317 2173.76 527.067 2173.76 510.871C2173.76 494.676 2169.09 481.425 2159.77 471.119C2150.69 460.813 2138.91 455.66 2124.43 455.66C2110.2 455.66 2098.42 460.813 2089.1 471.119C2080.02 481.425 2075.48 494.676 2075.48 510.871ZM2229.34 510.871C2229.34 539.581 2219.4 563.752 2199.52 583.382C2179.64 603.013 2154.62 612.828 2124.43 612.828C2094.5 612.828 2069.59 603.013 2049.71 583.382C2029.84 563.752 2019.9 539.581 2019.9 510.871C2019.9 482.161 2029.84 457.991 2049.71 438.36C2069.59 418.484 2094.5 408.546 2124.43 408.546C2154.62 408.546 2179.64 418.484 2199.52 438.36C2219.4 457.991 2229.34 482.161 2229.34 510.871Z" fill="white"/>
<path d="M935.732 748.418C929.305 748.418 923.531 747.301 918.408 745.065C913.378 742.737 909.42 739.57 906.533 735.565C903.645 731.467 902.155 726.763 902.062 721.455H915.614C916.08 726.018 917.942 729.884 921.202 733.05C924.555 736.124 929.398 737.661 935.732 737.661C941.786 737.661 946.536 736.171 949.982 733.19C953.522 730.117 955.291 726.205 955.291 721.455C955.291 717.729 954.267 714.702 952.218 712.373C950.169 710.045 947.607 708.275 944.534 707.065C941.46 705.854 937.315 704.55 932.099 703.153C925.673 701.476 920.504 699.8 916.592 698.123C912.773 696.447 909.467 693.839 906.672 690.299C903.971 686.667 902.621 681.824 902.621 675.77C902.621 670.461 903.971 665.757 906.672 661.659C909.373 657.561 913.146 654.394 917.989 652.159C922.925 649.924 928.56 648.806 934.894 648.806C944.021 648.806 951.472 651.088 957.247 655.652C963.115 660.215 966.421 666.27 967.166 673.814H953.196C952.73 670.088 950.774 666.828 947.328 664.034C943.882 661.147 939.318 659.703 933.636 659.703C928.327 659.703 923.996 661.1 920.643 663.894C917.29 666.595 915.614 670.414 915.614 675.351C915.614 678.89 916.592 681.777 918.548 684.013C920.597 686.248 923.065 687.971 925.952 689.182C928.933 690.299 933.077 691.603 938.386 693.094C944.813 694.863 949.982 696.633 953.894 698.403C957.806 700.079 961.159 702.734 963.953 706.366C966.747 709.905 968.144 714.749 968.144 720.896C968.144 725.646 966.887 730.117 964.372 734.308C961.857 738.499 958.132 741.899 953.196 744.507C948.259 747.114 942.438 748.418 935.732 748.418ZM1051.12 706.226C1051.12 708.648 1050.98 711.209 1050.7 713.91H989.508C989.974 721.455 992.535 727.369 997.192 731.653C1001.94 735.845 1007.67 737.94 1014.38 737.94C1019.87 737.94 1024.44 736.683 1028.07 734.168C1031.79 731.56 1034.4 728.114 1035.89 723.83H1049.58C1047.53 731.188 1043.44 737.195 1037.29 741.852C1031.14 746.416 1023.5 748.698 1014.38 748.698C1007.11 748.698 1000.59 747.068 994.817 743.808C989.135 740.548 984.665 735.938 981.405 729.977C978.145 723.923 976.515 716.937 976.515 709.02C976.515 701.104 978.098 694.165 981.265 688.204C984.432 682.243 988.856 677.679 994.537 674.512C1000.31 671.252 1006.92 669.623 1014.38 669.623C1021.64 669.623 1028.07 671.206 1033.66 674.373C1039.24 677.539 1043.53 681.917 1046.51 687.505C1049.58 693 1051.12 699.241 1051.12 706.226ZM1037.99 703.572C1037.99 698.729 1036.92 694.584 1034.77 691.138C1032.63 687.598 1029.7 684.944 1025.97 683.174C1022.34 681.312 1018.29 680.38 1013.82 680.38C1007.39 680.38 1001.9 682.429 997.332 686.527C992.861 690.625 990.3 696.307 989.648 703.572H1037.99ZM1075.03 683.314C1077.26 678.936 1080.43 675.537 1084.53 673.115C1088.72 670.694 1093.79 669.483 1099.75 669.483V682.615H1096.4C1082.15 682.615 1075.03 690.346 1075.03 705.807V747.44H1062.31V670.88H1075.03V683.314ZM1137.34 735.705L1161.09 670.88H1174.65L1144.61 747.44H1129.8L1099.76 670.88H1113.45L1137.34 735.705ZM1188.13 658.446C1185.71 658.446 1183.66 657.608 1181.99 655.931C1180.31 654.255 1179.47 652.205 1179.47 649.784C1179.47 647.362 1180.31 645.313 1181.99 643.637C1183.66 641.96 1185.71 641.122 1188.13 641.122C1190.46 641.122 1192.42 641.96 1194 643.637C1195.68 645.313 1196.52 647.362 1196.52 649.784C1196.52 652.205 1195.68 654.255 1194 655.931C1192.42 657.608 1190.46 658.446 1188.13 658.446ZM1194.28 670.88V747.44H1181.57V670.88H1194.28ZM1205.61 709.02C1205.61 701.104 1207.19 694.211 1210.36 688.344C1213.53 682.383 1217.9 677.772 1223.49 674.512C1229.17 671.252 1235.65 669.623 1242.91 669.623C1252.32 669.623 1260.05 671.904 1266.1 676.468C1272.25 681.032 1276.3 687.366 1278.26 695.469H1264.57C1263.26 690.812 1260.7 687.133 1256.88 684.432C1253.16 681.731 1248.5 680.38 1242.91 680.38C1235.65 680.38 1229.78 682.895 1225.31 687.924C1220.84 692.861 1218.6 699.893 1218.6 709.02C1218.6 718.241 1220.84 725.366 1225.31 730.396C1229.78 735.425 1235.65 737.94 1242.91 737.94C1248.5 737.94 1253.16 736.636 1256.88 734.028C1260.61 731.42 1263.17 727.695 1264.57 722.852H1278.26C1276.21 730.675 1272.11 736.962 1265.96 741.712C1259.82 746.369 1252.13 748.698 1242.91 748.698C1235.65 748.698 1229.17 747.068 1223.49 743.808C1217.9 740.548 1213.53 735.938 1210.36 729.977C1207.19 724.016 1205.61 717.03 1205.61 709.02ZM1296.2 658.446C1293.78 658.446 1291.73 657.608 1290.05 655.931C1288.38 654.255 1287.54 652.205 1287.54 649.784C1287.54 647.362 1288.38 645.313 1290.05 643.637C1291.73 641.96 1293.78 641.122 1296.2 641.122C1298.53 641.122 1300.49 641.96 1302.07 643.637C1303.75 645.313 1304.58 647.362 1304.58 649.784C1304.58 652.205 1303.75 654.255 1302.07 655.931C1300.49 657.608 1298.53 658.446 1296.2 658.446ZM1302.35 670.88V747.44H1289.63V670.88H1302.35ZM1351.82 748.698C1344.65 748.698 1338.13 747.068 1332.26 743.808C1326.48 740.548 1321.92 735.938 1318.57 729.977C1315.31 723.923 1313.68 716.937 1313.68 709.02C1313.68 701.197 1315.35 694.304 1318.71 688.344C1322.15 682.289 1326.81 677.679 1332.68 674.512C1338.55 671.252 1345.11 669.623 1352.38 669.623C1359.64 669.623 1366.21 671.252 1372.08 674.512C1377.94 677.679 1382.55 682.243 1385.91 688.204C1389.35 694.165 1391.08 701.104 1391.08 709.02C1391.08 716.937 1389.31 723.923 1385.77 729.977C1382.32 735.938 1377.62 740.548 1371.66 743.808C1365.7 747.068 1359.08 748.698 1351.82 748.698ZM1351.82 737.521C1356.38 737.521 1360.67 736.45 1364.67 734.308C1368.68 732.166 1371.89 728.952 1374.31 724.668C1376.83 720.383 1378.08 715.168 1378.08 709.02C1378.08 702.873 1376.87 697.657 1374.45 693.373C1372.03 689.089 1368.86 685.922 1364.95 683.873C1361.04 681.731 1356.8 680.66 1352.24 680.66C1347.58 680.66 1343.3 681.731 1339.38 683.873C1335.57 685.922 1332.49 689.089 1330.16 693.373C1327.83 697.657 1326.67 702.873 1326.67 709.02C1326.67 715.261 1327.79 720.523 1330.02 724.808C1332.35 729.092 1335.43 732.305 1339.24 734.447C1343.06 736.497 1347.25 737.521 1351.82 737.521ZM1429.31 748.698C1423.44 748.698 1418.18 747.72 1413.52 745.764C1408.86 743.715 1405.18 740.921 1402.48 737.381C1399.78 733.749 1398.29 729.604 1398.01 724.947H1411.15C1411.52 728.766 1413.29 731.886 1416.45 734.308C1419.71 736.729 1423.95 737.94 1429.17 737.94C1434.01 737.94 1437.83 736.869 1440.62 734.727C1443.42 732.585 1444.82 729.884 1444.82 726.624C1444.82 723.271 1443.32 720.803 1440.34 719.219C1437.36 717.543 1432.75 715.913 1426.51 714.329C1420.83 712.839 1416.17 711.349 1412.54 709.859C1409 708.275 1405.93 705.993 1403.32 703.013C1400.81 699.939 1399.55 695.934 1399.55 690.998C1399.55 687.086 1400.71 683.5 1403.04 680.24C1405.37 676.981 1408.68 674.419 1412.96 672.556C1417.25 670.6 1422.14 669.623 1427.63 669.623C1436.11 669.623 1442.95 671.765 1448.17 676.049C1453.38 680.334 1456.18 686.201 1456.55 693.652H1443.84C1443.56 689.647 1441.93 686.434 1438.95 684.013C1436.06 681.591 1432.15 680.38 1427.21 680.38C1422.65 680.38 1419.02 681.358 1416.31 683.314C1413.61 685.27 1412.26 687.831 1412.26 690.998C1412.26 693.513 1413.05 695.608 1414.64 697.285C1416.31 698.868 1418.36 700.172 1420.79 701.197C1423.3 702.128 1426.75 703.199 1431.12 704.41C1436.62 705.9 1441.09 707.391 1444.54 708.881C1447.98 710.278 1450.92 712.42 1453.34 715.307C1455.85 718.195 1457.16 721.967 1457.25 726.624C1457.25 730.815 1456.08 734.587 1453.76 737.94C1451.43 741.293 1448.12 743.948 1443.84 745.904C1439.65 747.766 1434.8 748.698 1429.31 748.698ZM1513.98 650.063V747.44H1501.27V650.063H1513.98ZM1567.36 669.483C1576.68 669.483 1584.22 672.324 1589.99 678.005C1595.77 683.593 1598.66 691.697 1598.66 702.314V747.44H1586.08V704.131C1586.08 696.493 1584.17 690.672 1580.35 686.667C1576.54 682.569 1571.32 680.52 1564.71 680.52C1558 680.52 1552.65 682.615 1548.64 686.807C1544.73 690.998 1542.77 697.099 1542.77 705.109V747.44H1530.06V670.88H1542.77V681.777C1545.29 677.865 1548.69 674.838 1552.97 672.696C1557.35 670.554 1562.15 669.483 1567.36 669.483ZM1705.9 669.483C1711.86 669.483 1717.17 670.74 1721.83 673.255C1726.49 675.677 1730.17 679.356 1732.87 684.292C1735.57 689.228 1736.92 695.236 1736.92 702.314V747.44H1724.35V704.131C1724.35 696.493 1722.44 690.672 1718.62 686.667C1714.89 682.569 1709.82 680.52 1703.39 680.52C1696.78 680.52 1691.51 682.662 1687.6 686.946C1683.69 691.138 1681.73 697.238 1681.73 705.248V747.44H1669.16V704.131C1669.16 696.493 1667.25 690.672 1663.43 686.667C1659.71 682.569 1654.63 680.52 1648.2 680.52C1641.59 680.52 1636.33 682.662 1632.42 686.946C1628.51 691.138 1626.55 697.238 1626.55 705.248V747.44H1613.84V670.88H1626.55V681.917C1629.06 677.912 1632.42 674.838 1636.61 672.696C1640.89 670.554 1645.6 669.483 1650.72 669.483C1657.15 669.483 1662.83 670.926 1667.76 673.814C1672.7 676.701 1676.38 680.939 1678.8 686.527C1680.94 681.125 1684.48 676.934 1689.42 673.954C1694.35 670.973 1699.85 669.483 1705.9 669.483ZM1785.58 748.698C1778.4 748.698 1771.88 747.068 1766.02 743.808C1760.24 740.548 1755.68 735.938 1752.33 729.977C1749.07 723.923 1747.44 716.937 1747.44 709.02C1747.44 701.197 1749.11 694.304 1752.47 688.344C1755.91 682.289 1760.57 677.679 1766.44 674.512C1772.3 671.252 1778.87 669.623 1786.14 669.623C1793.4 669.623 1799.97 671.252 1805.83 674.512C1811.7 677.679 1816.31 682.243 1819.67 688.204C1823.11 694.165 1824.83 701.104 1824.83 709.02C1824.83 716.937 1823.06 723.923 1819.53 729.977C1816.08 735.938 1811.38 740.548 1805.41 743.808C1799.45 747.068 1792.84 748.698 1785.58 748.698ZM1785.58 737.521C1790.14 737.521 1794.42 736.45 1798.43 734.308C1802.43 732.166 1805.65 728.952 1808.07 724.668C1810.58 720.383 1811.84 715.168 1811.84 709.02C1811.84 702.873 1810.63 697.657 1808.21 693.373C1805.79 689.089 1802.62 685.922 1798.71 683.873C1794.8 681.731 1790.56 680.66 1786 680.66C1781.34 680.66 1777.05 681.731 1773.14 683.873C1769.32 685.922 1766.25 689.089 1763.92 693.373C1761.59 697.657 1760.43 702.873 1760.43 709.02C1760.43 715.261 1761.55 720.523 1763.78 724.808C1766.11 729.092 1769.18 732.305 1773 734.447C1776.82 736.497 1781.01 737.521 1785.58 737.521ZM1848.68 685.13C1851.28 680.566 1855.1 676.841 1860.13 673.954C1865.16 671.066 1870.89 669.623 1877.32 669.623C1884.21 669.623 1890.4 671.252 1895.9 674.512C1901.39 677.772 1905.72 682.383 1908.89 688.344C1912.06 694.211 1913.64 701.057 1913.64 708.881C1913.64 716.611 1912.06 723.504 1908.89 729.558C1905.72 735.612 1901.35 740.315 1895.76 743.668C1890.26 747.021 1884.12 748.698 1877.32 748.698C1870.7 748.698 1864.88 747.254 1859.85 744.367C1854.92 741.48 1851.19 737.801 1848.68 733.33V747.44H1835.96V644.056H1848.68V685.13ZM1900.65 708.881C1900.65 703.106 1899.48 698.077 1897.15 693.792C1894.83 689.508 1891.66 686.248 1887.65 684.013C1883.74 681.777 1879.41 680.66 1874.66 680.66C1870 680.66 1865.67 681.824 1861.67 684.152C1857.76 686.388 1854.59 689.694 1852.17 694.072C1849.84 698.356 1848.68 703.339 1848.68 709.02C1848.68 714.795 1849.84 719.871 1852.17 724.249C1854.59 728.533 1857.76 731.84 1861.67 734.168C1865.67 736.403 1870 737.521 1874.66 737.521C1879.41 737.521 1883.74 736.403 1887.65 734.168C1891.66 731.84 1894.83 728.533 1897.15 724.249C1899.48 719.871 1900.65 714.749 1900.65 708.881ZM1931.35 658.446C1928.93 658.446 1926.88 657.608 1925.21 655.931C1923.53 654.255 1922.69 652.205 1922.69 649.784C1922.69 647.362 1923.53 645.313 1925.21 643.637C1926.88 641.96 1928.93 641.122 1931.35 641.122C1933.68 641.122 1935.64 641.96 1937.22 643.637C1938.9 645.313 1939.74 647.362 1939.74 649.784C1939.74 652.205 1938.9 654.255 1937.22 655.931C1935.64 657.608 1933.68 658.446 1931.35 658.446ZM1937.5 670.88V747.44H1924.79V670.88H1937.5ZM1966.29 644.056V747.44H1953.58V644.056H1966.29ZM1988.94 658.446C1986.52 658.446 1984.47 657.608 1982.79 655.931C1981.12 654.255 1980.28 652.205 1980.28 649.784C1980.28 647.362 1981.12 645.313 1982.79 643.637C1984.47 641.96 1986.52 641.122 1988.94 641.122C1991.27 641.122 1993.22 641.96 1994.81 643.637C1996.48 645.313 1997.32 647.362 1997.32 649.784C1997.32 652.205 1996.48 654.255 1994.81 655.931C1993.22 657.608 1991.27 658.446 1988.94 658.446ZM1995.09 670.88V747.44H1982.37V670.88H1995.09ZM2006.42 708.881C2006.42 701.057 2008 694.211 2011.17 688.344C2014.33 682.383 2018.66 677.772 2024.16 674.512C2029.75 671.252 2035.94 669.623 2042.74 669.623C2049.45 669.623 2055.27 671.066 2060.2 673.954C2065.14 676.841 2068.82 680.473 2071.24 684.851V670.88H2084.09V747.44H2071.24V733.19C2068.73 737.661 2064.95 741.386 2059.92 744.367C2054.99 747.254 2049.21 748.698 2042.6 748.698C2035.8 748.698 2029.65 747.021 2024.16 743.668C2018.66 740.315 2014.33 735.612 2011.17 729.558C2008 723.504 2006.42 716.611 2006.42 708.881ZM2071.24 709.02C2071.24 703.246 2070.08 698.216 2067.75 693.932C2065.42 689.647 2062.25 686.388 2058.25 684.152C2054.34 681.824 2050 680.66 2045.25 680.66C2040.5 680.66 2036.17 681.777 2032.26 684.013C2028.35 686.248 2025.23 689.508 2022.9 693.792C2020.57 698.077 2019.41 703.106 2019.41 708.881C2019.41 714.749 2020.57 719.871 2022.9 724.249C2025.23 728.533 2028.35 731.84 2032.26 734.168C2036.17 736.403 2040.5 737.521 2045.25 737.521C2050 737.521 2054.34 736.403 2058.25 734.168C2062.25 731.84 2065.42 728.533 2067.75 724.249C2070.08 719.871 2071.24 714.795 2071.24 709.02ZM2112.7 683.314C2114.94 678.936 2118.11 675.537 2122.2 673.115C2126.4 670.694 2131.47 669.483 2137.43 669.483V682.615H2134.08C2119.83 682.615 2112.7 690.346 2112.7 705.807V747.44H2099.99V670.88H2112.7V683.314ZM2153.09 658.446C2150.66 658.446 2148.62 657.608 2146.94 655.931C2145.26 654.255 2144.42 652.205 2144.42 649.784C2144.42 647.362 2145.26 645.313 2146.94 643.637C2148.62 641.96 2150.66 641.122 2153.09 641.122C2155.41 641.122 2157.37 641.96 2158.95 643.637C2160.63 645.313 2161.47 647.362 2161.47 649.784C2161.47 652.205 2160.63 654.255 2158.95 655.931C2157.37 657.608 2155.41 658.446 2153.09 658.446ZM2159.23 670.88V747.44H2146.52V670.88H2159.23ZM2208.7 748.698C2201.53 748.698 2195.01 747.068 2189.14 743.808C2183.37 740.548 2178.81 735.938 2175.45 729.977C2172.19 723.923 2170.56 716.937 2170.56 709.02C2170.56 701.197 2172.24 694.304 2175.59 688.344C2179.04 682.289 2183.7 677.679 2189.56 674.512C2195.43 671.252 2202 669.623 2209.26 669.623C2216.53 669.623 2223.09 671.252 2228.96 674.512C2234.83 677.679 2239.44 682.243 2242.79 688.204C2246.24 694.165 2247.96 701.104 2247.96 709.02C2247.96 716.937 2246.19 723.923 2242.65 729.977C2239.21 735.938 2234.5 740.548 2228.54 743.808C2222.58 747.068 2215.97 748.698 2208.7 748.698ZM2208.7 737.521C2213.27 737.521 2217.55 736.45 2221.56 734.308C2225.56 732.166 2228.77 728.952 2231.2 724.668C2233.71 720.383 2234.97 715.168 2234.97 709.02C2234.97 702.873 2233.76 697.657 2231.34 693.373C2228.91 689.089 2225.75 685.922 2221.84 683.873C2217.92 681.731 2213.69 680.66 2209.12 680.66C2204.47 680.66 2200.18 681.731 2196.27 683.873C2192.45 685.922 2189.38 689.089 2187.05 693.373C2184.72 697.657 2183.56 702.873 2183.56 709.02C2183.56 715.261 2184.67 720.523 2186.91 724.808C2189.24 729.092 2192.31 732.305 2196.13 734.447C2199.95 736.497 2204.14 737.521 2208.7 737.521ZM2286.19 748.698C2280.33 748.698 2275.06 747.72 2270.41 745.764C2265.75 743.715 2262.07 740.921 2259.37 737.381C2256.67 733.749 2255.18 729.604 2254.9 724.947H2268.03C2268.4 728.766 2270.17 731.886 2273.34 734.308C2276.6 736.729 2280.84 737.94 2286.05 737.94C2290.9 737.94 2294.72 736.869 2297.51 734.727C2300.3 732.585 2301.7 729.884 2301.7 726.624C2301.7 723.271 2300.21 720.803 2297.23 719.219C2294.25 717.543 2289.64 715.913 2283.4 714.329C2277.72 712.839 2273.06 711.349 2269.43 709.859C2265.89 708.275 2262.81 705.993 2260.21 703.013C2257.69 699.939 2256.43 695.934 2256.43 690.998C2256.43 687.086 2257.6 683.5 2259.93 680.24C2262.26 676.981 2265.56 674.419 2269.85 672.556C2274.13 670.6 2279.02 669.623 2284.52 669.623C2292.99 669.623 2299.84 671.765 2305.05 676.049C2310.27 680.334 2313.06 686.201 2313.44 693.652H2300.72C2300.44 689.647 2298.81 686.434 2295.83 684.013C2292.95 681.591 2289.03 680.38 2284.1 680.38C2279.53 680.38 2275.9 681.358 2273.2 683.314C2270.5 685.27 2269.15 687.831 2269.15 690.998C2269.15 693.513 2269.94 695.608 2271.52 697.285C2273.2 698.868 2275.25 700.172 2277.67 701.197C2280.19 702.128 2283.63 703.199 2288.01 704.41C2293.5 705.9 2297.97 707.391 2301.42 708.881C2304.87 710.278 2307.8 712.42 2310.22 715.307C2312.74 718.195 2314.04 721.967 2314.13 726.624C2314.13 730.815 2312.97 734.587 2310.64 737.94C2308.31 741.293 2305.01 743.948 2300.72 745.904C2296.53 747.766 2291.69 748.698 2286.19 748.698Z" fill="#99ABBB"/>
</svg>
